<?xml version="1.0" encoding="UTF-8"?>
<!DOCTYPE svg PUBLIC "-//W3C//DTD SVG 1.1//EN" "http://www.w3.org/Graphics/SVG/1.1/DTD/svg11.dtd">
<svg xmlns="http://www.w3.org/2000/svg" version="1.1" width="1138px" height="128px" style="shape-rendering:geometricPrecision; text-rendering:geometricPrecision; image-rendering:optimizeQuality; fill-rule:evenodd; clip-rule:evenodd" xmlns:xlink="http://www.w3.org/1999/xlink">
<g><path style="opacity:0.978" fill="#0e36a8" d="M 51.5,-0.5 C 59.5,-0.5 67.5,-0.5 75.5,-0.5C 113.253,10.6261 130.42,35.9594 127,75.5C 120.319,103.347 103.152,120.681 75.5,127.5C 67.5,127.5 59.5,127.5 51.5,127.5C 23.8333,120.5 6.5,103.167 -0.5,75.5C -0.5,67.5 -0.5,59.5 -0.5,51.5C 6.5,23.8333 23.8333,6.5 51.5,-0.5 Z"/></g>
<g><path style="opacity:0.898" fill="#fefffe" d="M 234.5,19.5 C 243.53,19.3583 247.363,23.6916 246,32.5C 243.103,37.1549 238.937,38.6549 233.5,37C 226.631,30.7239 226.965,24.8905 234.5,19.5 Z"/></g>
<g><path style="opacity:0.895" fill="#fefffe" d="M 973.5,19.5 C 982.53,19.3583 986.363,23.6916 985,32.5C 982.103,37.1549 977.937,38.6549 972.5,37C 965.693,30.8026 966.026,24.9692 973.5,19.5 Z"/></g>
<g><path style="opacity:0.897" fill="#fefffe" d="M 400.5,21.5 C 410.5,21.5 420.5,21.5 430.5,21.5C 430.5,43.8333 430.5,66.1667 430.5,88.5C 435.833,88.5 441.167,88.5 446.5,88.5C 446.5,92.5 446.5,96.5 446.5,100.5C 430.5,100.5 414.5,100.5 398.5,100.5C 398.5,96.5 398.5,92.5 398.5,88.5C 404.167,88.5 409.833,88.5 415.5,88.5C 415.5,70.1667 415.5,51.8333 415.5,33.5C 410.5,33.5 405.5,33.5 400.5,33.5C 400.5,29.5 400.5,25.5 400.5,21.5 Z"/></g>
<g><path style="opacity:0.885" fill="#fefffe" d="M 893.5,21.5 C 903.416,21.181 913.25,21.5144 923,22.5C 923.5,44.4975 923.667,66.4975 923.5,88.5C 928.833,88.5 934.167,88.5 939.5,88.5C 939.793,92.4367 939.46,96.27 938.5,100C 922.592,100.824 906.759,100.657 891,99.5C 890.211,95.9085 890.378,92.4085 891.5,89C 897.157,88.5006 902.824,88.3339 908.5,88.5C 908.5,70.1667 908.5,51.8333 908.5,33.5C 903.489,33.6659 898.489,33.4993 893.5,33C 892.2,29.1675 892.2,25.3342 893.5,21.5 Z"/></g>
<g><path style="opacity:0.926" fill="#fefffe" d="M 668.5,26.5 C 676.313,26.1052 683.98,26.9386 691.5,29C 692.802,33.7817 692.802,38.615 691.5,43.5C 670.037,33.8928 658.37,40.7261 656.5,64C 656.192,82.033 664.859,89.6996 682.5,87C 685.76,86.0251 688.927,84.8584 692,83.5C 692.499,88.1548 692.666,92.8215 692.5,97.5C 681.992,100.816 671.325,101.316 660.5,99C 646.538,91.925 640.205,80.425 641.5,64.5C 640.622,44.4327 649.622,31.766 668.5,26.5 Z"/></g>
<g><path style="opacity:0.944" fill="#fefffe" d="M 149.5,27.5 C 155.425,27.1918 161.259,27.5251 167,28.5C 174.274,44.0485 181.274,59.7152 188,75.5C 188.5,59.5035 188.667,43.5035 188.5,27.5C 192.833,27.5 197.167,27.5 201.5,27.5C 201.5,51.8333 201.5,76.1667 201.5,100.5C 195.794,100.829 190.128,100.495 184.5,99.5C 177.059,83.6183 169.892,67.6183 163,51.5C 162.667,67.5 162.333,83.5 162,99.5C 157.934,100.464 153.767,100.797 149.5,100.5C 149.5,76.1667 149.5,51.8333 149.5,27.5 Z"/></g>
<g><path style="opacity:1" fill="#f4f5fb" d="M 89.5,31.5 C 96.7129,31.1246 103.713,32.1246 110.5,34.5C 111.833,37.1667 111.833,39.8333 110.5,42.5C 86.0897,34.7265 75.2564,43.7265 78,69.5C 81.0917,83.8883 89.925,89.3883 104.5,86C 106.65,84.5886 108.984,83.7553 111.5,83.5C 111.5,86.1667 111.5,88.8333 111.5,91.5C 104.022,94.0399 96.3555,94.8732 88.5,94C 80.157,91.6565 74.3237,86.4899 71,78.5C 65.1386,62.1878 68.3052,48.0211 80.5,36C 83.4375,34.1991 86.4375,32.6991 89.5,31.5 Z"/></g>
<g><path style="opacity:1" fill="#7c93cf" d="M 27.5,32.5 C 24.1667,32.5 20.8333,32.5 17.5,32.5C 17.5,52.8333 17.5,73.1667 17.5,93.5C 16.5028,73.0067 16.1695,52.3401 16.5,31.5C 20.3714,31.185 24.0381,31.5184 27.5,32.5 Z"/></g>
<g><path style="opacity:1" fill="#fcfcfe" d="M 27.5,32.5 C 35.6164,47.7362 42.9497,63.4028 49.5,79.5C 49.7828,80.2891 50.2828,80.9558 51,81.5C 51.4999,65.1701 51.6666,48.8367 51.5,32.5C 53.8333,32.5 56.1667,32.5 58.5,32.5C 58.5,52.8333 58.5,73.1667 58.5,93.5C 54.774,93.8226 51.1073,93.4892 47.5,92.5C 39.9403,77.3835 32.9403,62.0501 26.5,46.5C 26.0133,45.5266 25.5133,44.5266 25,43.5C 24.5001,60.1633 24.3334,76.83 24.5,93.5C 22.1667,93.5 19.8333,93.5 17.5,93.5C 17.5,73.1667 17.5,52.8333 17.5,32.5C 20.8333,32.5 24.1667,32.5 27.5,32.5 Z"/></g>
<g><path style="opacity:0.922" fill="#fefffe" d="M 299.5,42.5 C 306.59,42.3407 313.59,43.0074 320.5,44.5C 320.827,49.2137 320.493,53.8804 319.5,58.5C 309.92,53.1504 301.087,53.8171 293,60.5C 288.81,67.3104 288.477,74.3104 292,81.5C 295.33,86.0819 299.83,88.4153 305.5,88.5C 310.595,87.881 315.595,86.881 320.5,85.5C 320.797,89.7675 320.464,93.9341 319.5,98C 314.541,99.9481 309.374,100.781 304,100.5C 281.454,99.8174 271.787,88.1508 275,65.5C 278.244,52.4177 286.411,44.7511 299.5,42.5 Z"/></g>
<g><path style="opacity:0.927" fill="#fefffe" d="M 353.5,42.5 C 374.832,39.84 386.165,49.1733 387.5,70.5C 387.135,89.3606 377.635,99.694 359,101.5C 341.343,99.727 332.509,89.8937 332.5,72C 332.813,57.1488 339.813,47.3155 353.5,42.5 Z M 357.5,54.5 C 366.118,53.9527 370.951,57.9527 372,66.5C 373.098,72.8594 372.098,78.8594 369,84.5C 364.485,88.7964 359.319,89.6297 353.5,87C 347.411,79.7684 345.911,71.6017 349,62.5C 350.773,58.5596 353.606,55.893 357.5,54.5 Z"/></g>
<g><path style="opacity:0.934" fill="#fefffe" d="M 473.5,42.5 C 480.906,42.152 488.239,42.652 495.5,44C 500.757,46.2563 504.257,50.0896 506,55.5C 506.5,70.1629 506.667,84.8295 506.5,99.5C 502.5,99.5 498.5,99.5 494.5,99.5C 494.662,97.4727 494.495,95.4727 494,93.5C 483.174,103.533 472.174,103.866 461,94.5C 454.513,79.3068 459.347,69.8068 475.5,66C 481.149,65.2425 486.816,64.7425 492.5,64.5C 493.435,59.1912 491.435,55.6912 486.5,54C 478.462,52.8079 470.795,53.9746 463.5,57.5C 462.509,53.5546 462.176,49.5546 462.5,45.5C 466.323,44.6641 469.989,43.6641 473.5,42.5 Z M 479.5,75.5 C 483.833,75.5 488.167,75.5 492.5,75.5C 492.479,83.6951 488.313,88.3618 480,89.5C 475.675,89.5114 473.175,87.3448 472.5,83C 473.699,79.3049 476.032,76.8049 479.5,75.5 Z"/></g>
<g><path style="opacity:0.916" fill="#fefffe" d="M 538.5,42.5 C 546.858,42.3786 555.191,42.7119 563.5,43.5C 563.5,47.5 563.5,51.5 563.5,55.5C 555.93,53.6953 548.263,53.1953 540.5,54C 537.083,56.321 536.75,58.9876 539.5,62C 545.091,64.1971 550.758,66.1971 556.5,68C 565.934,71.6991 569.434,78.5324 567,88.5C 564.227,94.9405 559.394,98.7738 552.5,100C 542.452,101.886 532.452,101.553 522.5,99C 521.536,94.9341 521.203,90.7675 521.5,86.5C 528.282,88.2386 535.115,89.5719 542,90.5C 545.722,90.1045 549.056,88.7712 552,86.5C 552.536,84.4328 552.036,82.5994 550.5,81C 544.321,78.2732 537.987,75.9399 531.5,74C 522.116,68.3109 519.95,60.4776 525,50.5C 528.897,46.6414 533.397,43.9747 538.5,42.5 Z"/></g>
<g><path style="opacity:0.914" fill="#fefffe" d="M 720.5,42.5 C 727.574,42.161 734.574,42.661 741.5,44C 748.888,46.9193 752.721,52.4193 753,60.5C 753.5,73.4957 753.667,86.4957 753.5,99.5C 749.167,99.5 744.833,99.5 740.5,99.5C 740.662,97.4727 740.495,95.4727 740,93.5C 729.174,103.533 718.174,103.866 707,94.5C 701.694,83.275 704.194,74.4416 714.5,68C 722.337,65.7771 730.337,64.6104 738.5,64.5C 739.359,59.7203 737.692,56.2203 733.5,54C 725.135,52.758 717.135,53.9246 709.5,57.5C 708.509,53.5546 708.176,49.5546 708.5,45.5C 712.687,44.7867 716.687,43.7867 720.5,42.5 Z M 725.5,75.5 C 729.833,75.5 734.167,75.5 738.5,75.5C 737.98,85.5106 732.647,90.0106 722.5,89C 719.651,86.4406 718.817,83.2739 720,79.5C 721.812,78.0229 723.645,76.6896 725.5,75.5 Z"/></g>
<g><path style="opacity:0.945" fill="#fefffe" d="M 791.5,42.5 C 805.003,40.8586 813.503,46.5252 817,59.5C 822.363,88.2937 810.53,101.96 781.5,100.5C 781.5,107.5 781.5,114.5 781.5,121.5C 776.833,121.5 772.167,121.5 767.5,121.5C 767.5,95.5 767.5,69.5 767.5,43.5C 771.555,43.1758 775.555,43.5091 779.5,44.5C 780.189,46.444 780.689,48.444 781,50.5C 783.806,46.8526 787.306,44.1859 791.5,42.5 Z M 792.5,54.5 C 797.023,54.345 800.189,56.345 802,60.5C 804.374,68.7604 803.707,76.7604 800,84.5C 794.701,89.4844 788.534,90.8178 781.5,88.5C 781.334,80.4931 781.5,72.4931 782,64.5C 784.762,60.2339 788.262,56.9006 792.5,54.5 Z"/></g>
<g><path style="opacity:0.929" fill="#fefffe" d="M 847.5,42.5 C 870.449,41.4522 880.782,52.4522 878.5,75.5C 866.167,75.5 853.833,75.5 841.5,75.5C 842.571,85.5565 848.238,90.2232 858.5,89.5C 864.205,89.0916 869.872,88.425 875.5,87.5C 875.5,91.1667 875.5,94.8333 875.5,98.5C 867.275,100.509 858.942,101.342 850.5,101C 834.418,98.4113 826.418,88.9113 826.5,72.5C 826.683,57.3943 833.683,47.3943 847.5,42.5 Z M 848.5,53.5 C 858.332,51.6776 863.332,55.6776 863.5,65.5C 856.137,65.8306 848.803,65.4973 841.5,64.5C 842.612,59.9163 844.945,56.2496 848.5,53.5 Z"/></g>
<g><path style="opacity:0.928" fill="#fefffe" d="M 1031.5,42.5 C 1055.21,40.9214 1065.55,51.9214 1062.5,75.5C 1050.5,75.5 1038.5,75.5 1026.5,75.5C 1027.18,85.6758 1032.68,90.3424 1043,89.5C 1048.86,88.9953 1054.69,88.3286 1060.5,87.5C 1060.5,91.1667 1060.5,94.8333 1060.5,98.5C 1052.28,100.509 1043.94,101.342 1035.5,101C 1019.66,98.4886 1011.66,89.1552 1011.5,73C 1011.31,58.0752 1017.97,47.9086 1031.5,42.5 Z M 1033.5,53.5 C 1043.29,51.625 1048.29,55.625 1048.5,65.5C 1041.17,65.5 1033.83,65.5 1026.5,65.5C 1026.8,60.2156 1029.14,56.2156 1033.5,53.5 Z"/></g>
<g><path style="opacity:0.919" fill="#fefffe" d="M 1101.5,42.5 C 1118.07,41.2375 1125.9,48.9042 1125,65.5C 1120.6,66.4667 1116.1,66.8 1111.5,66.5C 1109.64,52.4248 1103.81,50.7581 1094,61.5C 1092.54,74.0668 1092.04,86.7335 1092.5,99.5C 1087.5,99.5 1082.5,99.5 1077.5,99.5C 1077.5,80.8333 1077.5,62.1667 1077.5,43.5C 1081.83,43.5 1086.17,43.5 1090.5,43.5C 1090.34,45.8568 1090.5,48.1902 1091,50.5C 1093.94,46.9632 1097.44,44.2965 1101.5,42.5 Z"/></g>
<g><path style="opacity:0.934" fill="#fefffe" d="M 215.5,43.5 C 225.5,43.5 235.5,43.5 245.5,43.5C 245.5,58.5 245.5,73.5 245.5,88.5C 250.833,88.5 256.167,88.5 261.5,88.5C 261.5,92.5 261.5,96.5 261.5,100.5C 245.83,100.667 230.163,100.5 214.5,100C 213.54,96.27 213.207,92.4367 213.5,88.5C 219.5,88.5 225.5,88.5 231.5,88.5C 231.5,77.1667 231.5,65.8333 231.5,54.5C 226.167,54.5 220.833,54.5 215.5,54.5C 215.5,50.8333 215.5,47.1667 215.5,43.5 Z"/></g>
<g><path style="opacity:0.931" fill="#fefffe" d="M 954.5,43.5 C 964.5,43.5 974.5,43.5 984.5,43.5C 984.5,58.5 984.5,73.5 984.5,88.5C 989.833,88.5 995.167,88.5 1000.5,88.5C 1000.5,92.5 1000.5,96.5 1000.5,100.5C 984.5,100.5 968.5,100.5 952.5,100.5C 952.5,96.5 952.5,92.5 952.5,88.5C 958.5,88.5 964.5,88.5 970.5,88.5C 970.5,77.1667 970.5,65.8333 970.5,54.5C 965.167,54.5 959.833,54.5 954.5,54.5C 954.5,50.8333 954.5,47.1667 954.5,43.5 Z"/></g>
<g><path style="opacity:1" fill="#8ea1d6" d="M 58.5,32.5 C 56.1667,32.5 53.8333,32.5 51.5,32.5C 51.6666,48.8367 51.4999,65.1701 51,81.5C 50.2828,80.9558 49.7828,80.2891 49.5,79.5C 50.4964,63.6754 50.8297,47.6754 50.5,31.5C 53.3854,31.1936 56.0521,31.5269 58.5,32.5 Z"/></g>
<g><path style="opacity:1" fill="#6680c7" d="M 26.5,46.5 C 25.8333,62.1667 25.1667,77.8333 24.5,93.5C 24.3334,76.83 24.5001,60.1633 25,43.5C 25.5133,44.5266 26.0133,45.5266 26.5,46.5 Z"/></g>
</svg>
